<svg width="136" height="138" viewBox="0 0 136 138" fill="none" xmlns="http://www.w3.org/2000/svg">
<path d="M44.0297 133.982C53.5804 139.739 60.3938 137.349 63.0023 132.733C68.0467 123.806 84.8191 105.551 111.399 99.3805C146.602 91.2085 139.25 69.5105 117.609 58.1245C95.9685 46.7384 79.7874 30.9836 82.2364 13.8531C84.6854 -3.27741 60.4204 -9.18284 49.6294 23.7705C42.656 45.0662 30.1592 50.7714 22.1903 52.1428C14.6797 53.4353 6.46402 55.057 2.45767 61.5399C-2.40377 69.4059 -0.707363 77.3628 19.6464 82.8202C48.4897 90.5538 22.6223 121.078 44.0297 133.982Z" fill="#FAFFE0" fill-opacity="0.2"/>
<path d="M19.2148 96.6568C19.619 96.4254 24.1809 94.4941 46.8757 105.074C46.8096 105.164 46.7815 105.207 46.7815 105.207C46.7815 105.207 23.1881 113.152 18.5654 103.364C17.185 100.45 17.5805 98.4434 19.1754 96.6794L19.2148 96.6568Z" fill="#B4D708"/>
<path d="M95.4938 100.662C90.5631 104.807 82.8308 107.815 75.3698 103.815C76.5488 103.061 77.7665 102.285 79.0085 101.483C86.5013 96.6682 93.1012 99.8895 95.4938 100.662Z" fill="#B4D708"/>
<path d="M104.326 49.6806C109.363 91.6283 97.3916 99.2413 96.0589 100.398C95.673 100.732 95.5166 100.708 94.9332 100.558L94.9233 100.564C92.4543 99.909 86.5015 96.6678 79.0084 101.482C77.7664 102.284 76.5483 103.06 75.3697 103.814C67.726 108.661 61.5534 112.078 57.1064 110.095C53.3344 108.171 49.9334 106.505 46.8758 105.075C24.1811 94.4948 19.6192 96.426 19.215 96.6575C19.684 96.402 23.9862 94.0172 29.7792 89.8235C29.7989 89.8121 29.8186 89.8009 29.8228 89.7854C37.5659 84.1739 47.9354 75.3309 55.389 63.9554C60.4631 56.2201 65.4271 36.6102 75.0048 32.7625C94.6888 25.4194 103.508 41.1482 104.326 49.6806Z" fill="#D6EC69"/>
<path d="M82.5605 48.9451C83.1715 47.3317 83.112 45.8136 82.4275 45.5544C81.743 45.2952 80.6928 46.393 80.0818 48.0064C79.4708 49.6198 79.5303 51.1379 80.2148 51.3971C80.8993 51.6563 81.9495 50.5585 82.5605 48.9451Z" fill="#333333"/>
<path d="M95.0937 51.0028C95.5267 49.3327 95.3034 47.83 94.5949 47.6463C93.8864 47.4625 92.961 48.6674 92.528 50.3375C92.0949 52.0075 92.3182 53.5103 93.0267 53.694C93.7352 53.8777 94.6606 52.6728 95.0937 51.0028Z" fill="#333333"/>
<path d="M87.4646 57.1357C87.362 57.1356 87.2624 57.1004 87.1825 57.036C87.1026 56.9715 87.0471 56.8817 87.0253 56.7813C86.9451 56.4181 86.5882 55.3433 86.0223 55.1836C85.4564 55.0238 84.3462 55.644 83.8971 55.9694C83.8004 56.0394 83.6799 56.0681 83.5621 56.0493C83.4442 56.0304 83.3387 55.9655 83.2687 55.8688C83.1987 55.7722 83.1699 55.6516 83.1888 55.5338C83.2076 55.4159 83.2725 55.3104 83.3692 55.2404C83.5462 55.1122 85.1315 53.997 86.2666 54.3173C87.4506 54.6514 87.8618 56.3924 87.9046 56.5899C87.919 56.6556 87.9184 56.7237 87.9029 56.7892C87.8874 56.8547 87.8575 56.9159 87.8153 56.9682C87.773 57.0206 87.7196 57.0628 87.6589 57.0918C87.5982 57.1208 87.5317 57.1358 87.4645 57.1357H87.4646Z" fill="#333333"/>
</svg>
