<svg width="50" height="51" viewBox="0 0 50 51" fill="none" xmlns="http://www.w3.org/2000/svg">
<path d="M25.0001 3.27734C20.6049 3.27734 16.3085 4.58065 12.6541 7.02246C8.99963 9.46427 6.15136 12.9349 4.46941 16.9955C2.78746 21.0561 2.34739 25.5242 3.20484 29.8349C4.06229 34.1456 6.17875 38.1052 9.28658 41.2131C12.3944 44.3209 16.354 46.4373 20.6647 47.2948C24.9754 48.1522 29.4436 47.7122 33.5041 46.0302C37.5647 44.3483 41.0354 41.5 43.4772 37.8456C45.919 34.1911 47.2223 29.8947 47.2223 25.4996C47.2223 19.6059 44.881 13.9536 40.7136 9.78608C36.5461 5.61861 30.8938 3.27734 25.0001 3.27734ZM25.0001 44.944C21.1543 44.944 17.3949 43.8036 14.1973 41.667C10.9997 39.5304 8.50744 36.4936 7.03574 32.9406C5.56404 29.3876 5.17897 25.478 5.92924 21.7061C6.67951 17.9343 8.53141 14.4696 11.2508 11.7503C13.9701 9.03091 17.4348 7.17901 21.2066 6.42874C24.9785 5.67847 28.8881 6.06354 32.4411 7.53524C35.9941 9.00695 39.0309 11.4992 41.1675 14.6968C43.3041 17.8944 44.4445 21.6538 44.4445 25.4996C44.4445 30.6566 42.3959 35.6023 38.7494 39.2489C35.1028 42.8954 30.1571 44.944 25.0001 44.944Z" fill="#D4FF00"/>
<path d="M38.8888 17.3062C38.6285 17.0475 38.2765 16.9023 37.9096 16.9023C37.5427 16.9023 37.1906 17.0475 36.9304 17.3062L21.5137 32.6534L13.1804 24.3201C12.9262 24.0457 12.5735 23.8835 12.1997 23.8691C11.8259 23.8548 11.4618 23.9896 11.1874 24.2437C10.9129 24.4979 10.7507 24.8507 10.7364 25.2244C10.7221 25.5982 10.8568 25.9624 11.111 26.2368L21.5137 36.6118L38.8888 19.2784C39.0189 19.1493 39.1223 18.9957 39.1928 18.8265C39.2633 18.6572 39.2996 18.4757 39.2996 18.2923C39.2996 18.109 39.2633 17.9274 39.1928 17.7582C39.1223 17.589 39.0189 17.4353 38.8888 17.3062Z" fill="#D4FF00"/>
</svg>
